<?xml version="1.0" encoding="UTF-8"?><svg id="_Слой_1" xmlns="http://www.w3.org/2000/svg" viewBox="0 0 297.32 84.36"><defs><style>.cls-1{fill:#b5b5b5;stroke-width:0px;}</style></defs><path class="cls-1" d="m25.2,27.42c-3.84,3.4-6.64,8.18-8.4,14.34v-17.64H0v58.8h17.28v-23.76c0-4.4.8-8.06,2.4-10.98,1.6-2.92,3.88-5.08,6.84-6.48s6.52-2.1,10.68-2.1c1.12,0,2.52.08,4.2.24v-17.4c-.64-.08-1.4-.12-2.28-.12-5.44,0-10.08,1.7-13.92,5.1Z"/><rect class="cls-1" x="47.49" width="16.56" height="15.24"/><rect class="cls-1" x="47.01" y="24.12" width="17.4" height="58.8"/><path class="cls-1" d="m122.41,26.46c-3.6-2.44-7.76-3.66-12.48-3.66-4,0-7.56.84-10.68,2.52s-5.64,3.94-7.56,6.78c-.74,1.1-1.38,2.25-1.92,3.47V.24h-17.28v82.68h17.04v-11.44c.56,1.34,1.23,2.61,2.04,3.82,1.84,2.76,4.26,4.96,7.26,6.6s6.5,2.46,10.5,2.46c4.72,0,8.94-1.28,12.66-3.84s6.62-6.2,8.7-10.92,3.12-10.24,3.12-16.56-1-11.62-3-16.14-4.8-8-8.4-10.44Zm-7.62,37.38c-1.08,2.88-2.6,5.06-4.56,6.54-1.96,1.48-4.3,2.22-7.02,2.22s-5.22-.78-7.26-2.34-3.62-3.76-4.74-6.6c-1.12-2.84-1.68-6.22-1.68-10.14s.56-7.2,1.68-10.08,2.7-5.1,4.74-6.66,4.46-2.34,7.26-2.34,5.06.76,7.02,2.28,3.48,3.7,4.56,6.54c1.08,2.84,1.62,6.26,1.62,10.26s-.54,7.44-1.62,10.32Z"/><path class="cls-1" d="m188.11,37.92c2.88-.48,5.58-1.52,8.1-3.12s4.56-3.7,6.12-6.3c1.56-2.6,2.34-5.62,2.34-9.06,0-5.76-2.12-10.4-6.36-13.92-4.24-3.52-10.12-5.28-17.64-5.28h-39.84v82.68h37.92c9.36,0,16.82-1.96,22.38-5.88s8.34-9.92,8.34-18c0-5.76-2-10.56-6-14.4s-9.12-6.08-15.36-6.72Zm-29.88-23.88h17.16c3.68,0,6.48.72,8.4,2.16,1.92,1.44,2.88,3.72,2.88,6.84,0,2.24-.48,4.08-1.44,5.52s-2.32,2.54-4.08,3.3-3.88,1.14-6.36,1.14h-16.56V14.04Zm29.7,51.54c-2.2,1.88-5.54,2.82-10.02,2.82h-19.68v-21.72h20.16c4.32,0,7.54.94,9.66,2.82,2.12,1.88,3.18,4.62,3.18,8.22,0,3.36-1.1,5.98-3.3,7.86h0Z"/><rect class="cls-1" x="215.91" width="16.56" height="15.24"/><rect class="cls-1" x="215.43" y="24.12" width="17.4" height="58.8"/><path class="cls-1" d="m297.32,54.48c0-6.48-1.1-12.14-3.3-16.98-2.2-4.84-5.48-8.6-9.84-11.28-4.36-2.68-9.62-4.02-15.78-4.02-5.84,0-11.02,1.26-15.54,3.78s-8.06,6.14-10.62,10.86c-2.56,4.72-3.84,10.24-3.84,16.56s1.16,11.68,3.48,16.32c2.32,4.64,5.74,8.24,10.26,10.8,4.52,2.56,9.98,3.84,16.38,3.84,7.44,0,13.54-1.64,18.3-4.92,4.76-3.28,8.22-7.6,10.38-12.96l-14.28-5.04c-1.12,3.36-2.82,5.94-5.1,7.74-2.28,1.8-5.14,2.7-8.58,2.7-3.2,0-5.84-.72-7.92-2.16-2.08-1.44-3.64-3.4-4.68-5.88-.87-2.06-1.35-4.39-1.5-6.96h42.18s0-2.4,0-2.4Zm-39.72-14.94c1.12-1.88,2.56-3.3,4.32-4.26,1.76-.96,3.84-1.44,6.24-1.44,3.76,0,6.7,1.1,8.82,3.3,2.06,2.14,3.15,5.24,3.28,9.3h-24.82c.32-2.72,1.04-5.02,2.16-6.9Z"/></svg>